<?xml version="1.0" encoding="UTF-8"?>
<svg width="1200pt" height="1200pt" version="1.1" viewBox="0 0 1200 1200" xmlns="http://www.w3.org/2000/svg">
 <path d="m464.53 870.94v38.672h-77.391v-38.672zm309.71-116.16h-38.766v38.766h38.766zm-232.31 232.36h38.766v-39.141h-38.766zm193.55-580.6v38.531h38.766v-38.531zm-154.78-116.16v657.61h38.625v-696h-38.625zm232.18 425.68v-270.98h-38.625v309.71h38.625zm-116.06-348v38.766h38.625l0.046875-39.047zm-193.5 541.55h-38.766v38.391h77.391v-38.391zm38.625-619.22v-38.391h-77.391v38.391zm-77.391 38.531v-38.531h-77.391v38.531zm116.16-116.06h-38.766v39.141h38.766zm-387.14 503.21v-309.52h-38.766v387h38.766zm193.55-348 0.046875-39.141h-77.438v38.859h77.391zm-116.16 425.48h-77.391v38.625h116.16v-38.625zm77.062 38.672h-38.297v38.766h77.391l0.046875-38.766zm-77.062-425.68h38.766v-38.766h-116.16v38.766zm581.06-193.69v39.141h38.625v-39.141zm116.16 658.08h38.625v-38.719h-39zm-77.859-618.94v38.391h38.766v-38.391zm38.766 657.61h38.766l-0.046875-38.672h-38.719zm38.766-580.69v38.859h38.625v-38.859zm38.625 38.859v464.39l38.766 0.046875v-464.44zm-77.391-77.391v38.531h38.766l-0.046875-38.531zm-38.766 657.61h38.766v-38.391h-38.766zm-154.78-77.391-0.046875 39h77.391v-38.672h-77.391zm116.48-502.82v38.766h38.625v-38.766zm-38.766-38.859v38.859h38.766v-38.859zm-39-38.531h-38.766v38.531h77.391v-38.531zm-38.766 503.16h-38.625v38.625h38.625zm154.78 0h-38.25v38.625h38.625zm-38.25 38.672h-39.141v38.766l39.141-0.046875zm0 154.92h38.625v-39.141h-38.625zm77.062-232.36v-348h-38.766v386.76h38.766z"/>
</svg>
